<svg width="15" height="21" viewBox="0 0 15 21" fill="none" xmlns="http://www.w3.org/2000/svg">
<path d="M10.5078 9.32812C10.3516 9.17188 10.1172 9.17188 9.96094 9.32812L6.52344 12.7266L5.03906 11.2422C4.88281 11.0859 4.60938 11.0859 4.49219 11.2422L3.55469 12.1406C3.39844 12.2969 3.39844 12.5312 3.55469 12.6875L6.21094 15.3828C6.36719 15.5391 6.64062 15.5391 6.75781 15.4219L11.4062 10.8125C11.5625 10.6562 11.5625 10.4219 11.4062 10.2656L10.5078 9.32812ZM13.125 3H10C10 1.63281 8.86719 0.5 7.5 0.5C6.09375 0.5 5 1.63281 5 3H1.875C0.820312 3 0 3.85938 0 4.875V18.625C0 19.6797 0.820312 20.5 1.875 20.5H13.125C14.1406 20.5 15 19.6797 15 18.625V4.875C15 3.85938 14.1406 3 13.125 3ZM7.5 2.375C7.8125 2.375 8.125 2.6875 8.125 3C8.125 3.35156 7.8125 3.625 7.5 3.625C7.14844 3.625 6.875 3.35156 6.875 3C6.875 2.6875 7.14844 2.375 7.5 2.375ZM13.125 18.3125C13.125 18.5078 12.9688 18.625 12.8125 18.625H2.1875C1.99219 18.625 1.875 18.5078 1.875 18.3125V5.1875C1.875 5.03125 1.99219 4.875 2.1875 4.875H3.75V6.125C3.75 6.47656 4.02344 6.75 4.375 6.75H10.625C10.9375 6.75 11.25 6.47656 11.25 6.125V4.875H12.8125C12.9688 4.875 13.125 5.03125 13.125 5.1875V18.3125Z" fill="#191919"/>
</svg>
